<?xml version="1.0" encoding="UTF-8"?>
<svg version="1.1" xmlns="http://www.w3.org/2000/svg" width="1280" height="1280">
<path d="M0 0 C0.93940365 -0.00297112 1.8788073 -0.00594224 2.84667772 -0.0090034 C5.98458117 -0.01765306 9.1224463 -0.01919549 12.26036072 -0.02069092 C14.51451193 -0.02532178 16.76866236 -0.0303468 19.02281189 -0.03573608 C25.14091057 -0.04883735 31.2589983 -0.05530076 37.37710881 -0.05974674 C41.20334663 -0.06268151 45.02958148 -0.06678711 48.85581779 -0.07125092 C59.4666446 -0.08335576 70.07746881 -0.09373881 80.68830204 -0.09712601 C81.36655252 -0.09734557 82.04480301 -0.09756514 82.74360653 -0.09779136 C83.42340639 -0.09800964 84.10320624 -0.09822791 84.80360609 -0.09845281 C86.18095529 -0.09889626 87.55830449 -0.09934282 88.93565369 -0.09979248 C89.61885484 -0.10001391 90.302056 -0.10023534 91.00596022 -0.10046348 C102.06354783 -0.10440719 113.12106937 -0.12185018 124.17863149 -0.145152 C135.55363051 -0.1689276 146.92858533 -0.18107327 158.3036136 -0.18249393 C164.6811981 -0.1835396 171.05868936 -0.18939678 177.43625069 -0.20731354 C183.44041163 -0.22385343 189.44440983 -0.22592101 195.44858551 -0.21717453 C197.64385605 -0.21640729 199.83913555 -0.22070528 202.03438377 -0.23063278 C225.39632233 -0.33002739 243.75673224 2.88914083 261.29527283 19.51544189 C271.43032725 30.08485579 276.46212785 43.35537181 276.79407215 57.87347412 C276.81450036 58.63176734 276.83492856 59.39006056 276.8559758 60.17133236 C276.9212328 62.66939943 276.97923456 65.16756328 277.03619385 67.66583252 C277.05714622 68.53235349 277.07809859 69.39887445 277.09968589 70.29165363 C277.52413458 87.95858964 277.63361586 105.61948993 277.62815654 123.2907908 C277.62794658 127.56446396 277.6335251 131.83813107 277.63821411 136.11180115 C277.64638821 144.41539181 277.64926255 152.71897536 277.64982649 161.02256972 C277.65030679 167.77398913 277.6523866 174.52540626 277.65552711 181.27682495 C277.66428696 200.50457089 277.66895231 219.73231133 277.66819664 238.96005929 C277.66813671 240.50268608 277.66813671 240.50268608 277.66807556 242.07647705 C277.66803468 243.10617485 277.6679938 244.13587265 277.66795168 245.19677341 C277.66754353 261.95510646 277.67716752 278.71341723 277.69121393 295.47174382 C277.70559137 312.76337226 277.71248379 330.05498981 277.71162015 347.34662437 C277.71128931 357.02188441 277.71398861 366.69712089 277.7247982 376.37237549 C277.73391987 384.58721821 277.7360637 392.80202662 277.72928878 401.01687223 C277.72603586 405.19917593 277.725923 409.38141382 277.73464203 413.56371117 C277.7425592 417.40075715 277.74102317 421.23768567 277.7323579 425.07472897 C277.73012044 427.09880105 277.7376089 429.12287695 277.74559754 431.14693451 C277.6694884 451.59343317 273.7524716 469.56697409 259.23277283 484.89044189 C245.93241901 497.42949599 230.03453291 502.30639611 211.98332214 502.27415466 C211.04588535 502.27642022 210.10844856 502.27868578 209.14260459 502.28101999 C206.01151521 502.28733376 202.88046941 502.2865323 199.74937439 502.28570557 C197.50020797 502.28869871 195.25104206 502.29210159 193.00187683 502.29588318 C186.89843888 502.30471196 180.79501495 502.30706083 174.69157124 502.30769897 C170.87607744 502.30841015 167.06058721 502.31054576 163.2450943 502.31319618 C150.61453943 502.32196894 137.98399478 502.32661636 125.35343769 502.32586571 C124.67327649 502.32582575 123.99311529 502.3257858 123.29234314 502.32574463 C122.61134567 502.32570375 121.9303482 502.32566287 121.22871444 502.32562075 C110.19821533 502.32521451 99.1677504 502.33477979 88.13726118 502.348883 C76.79504846 502.36326963 65.45285757 502.36996905 54.11063361 502.36928922 C47.74937647 502.36903457 41.388158 502.37186745 35.02690887 502.38246727 C29.04166021 502.39216836 23.05648703 502.3922136 17.07123566 502.38495064 C14.87954599 502.38390728 12.68785158 502.38625288 10.49617004 502.3923111 C-12.41496192 502.45151949 -30.37102728 499.62227116 -47.76722717 483.32794189 C-62.60720889 467.78853481 -64.83688679 449.62106933 -64.77119446 429.01728821 C-64.77350357 427.4238718 -64.77668311 425.83045646 -64.78064895 424.23704332 C-64.78894376 419.89240654 -64.78489602 415.54785841 -64.77867651 411.20322144 C-64.77413108 406.5044275 -64.78114613 401.80564827 -64.78663635 397.1068573 C-64.79550996 387.91502811 -64.79361735 378.72323167 -64.78781107 369.53140122 C-64.7832863 362.05757223 -64.7826852 354.58375238 -64.7848587 347.10992241 C-64.78516517 346.04443646 -64.78547164 344.97895051 -64.78578739 343.88117711 C-64.78642687 341.71635529 -64.7870753 339.55153347 -64.78773257 337.38671165 C-64.79342998 317.10682487 -64.78688736 296.82695621 -64.77613184 276.5470724 C-64.76719815 259.1645309 -64.76874801 241.78201612 -64.77796936 224.3994751 C-64.78868461 204.19154131 -64.79287936 183.98362339 -64.78674483 163.77568716 C-64.78610777 161.61871716 -64.78547902 159.46174715 -64.7848587 157.30477715 C-64.78439588 155.71306452 -64.78439588 155.71306452 -64.7839237 154.08919607 C-64.78220043 146.629107 -64.78510395 139.16902802 -64.78981781 131.70894051 C-64.79544065 122.6106976 -64.79388079 113.51248918 -64.78325632 104.4142502 C-64.77801828 99.77657094 -64.77591086 95.13894907 -64.78255463 90.50127029 C-64.78855513 86.24812775 -64.78517198 81.9950953 -64.77459952 77.7419626 C-64.77238275 76.21115774 -64.77346256 74.68034339 -64.7783511 73.14954472 C-64.84207057 51.52128977 -61.64464232 33.64807201 -46.45472717 17.45294189 C-33.37901261 4.89810057 -17.93832668 -0.01788904 0 0 Z M7.04527283 38.82794189 C5.02400489 43.11302993 4.66336572 46.48319945 5.48277283 51.14044189 C7.88507571 56.03744392 10.76478584 58.49662156 15.48277283 61.14044189 C18.15620903 61.51803873 20.41026252 61.68298616 23.073349 61.64837646 C23.81744868 61.65461643 24.56154837 61.66085639 25.32819653 61.66728544 C27.81103793 61.68318658 30.29289363 61.67062314 32.77574158 61.65802002 C34.55997794 61.66344244 36.34420981 61.67056577 38.12843323 61.67926025 C42.9672813 61.69748229 47.8057879 61.69043069 52.64464188 61.67774391 C57.71073063 61.66761047 62.77679033 61.67701055 67.84288025 61.68328857 C76.35017643 61.69056397 84.85733368 61.68098009 93.36460876 61.66192627 C103.19745233 61.64015776 113.02996412 61.64720921 122.86279964 61.66923189 C131.30798398 61.68738894 139.75306848 61.68994271 148.19826603 61.67947721 C153.24094137 61.67324398 158.2834608 61.67240203 163.3261261 61.68562317 C168.06718334 61.69718545 172.8078132 61.68914898 177.54882431 61.66604614 C179.28786383 61.66076108 181.02693936 61.66226938 182.76596451 61.6710968 C185.14185929 61.6820443 187.51638865 61.66829981 189.89219666 61.64837646 C190.57877948 61.65729935 191.2653623 61.66622224 191.97275066 61.67541552 C196.8961934 61.59544907 199.66587821 60.1738006 203.48277283 57.14044189 C206.385057 53.83784266 207.39836335 51.25886741 207.73277283 46.82794189 C207.37175512 41.5029307 205.89745524 38.44902313 201.98277283 34.82794189 C197.72250117 31.95225852 194.37388655 32.00963769 189.33561707 31.99327087 C188.60295333 31.98959419 187.87028959 31.9859175 187.11542392 31.9821294 C184.6535566 31.97109192 182.1917315 31.96724862 179.72984314 31.96343994 C177.96738043 31.95717535 176.20491904 31.95052856 174.44245911 31.94352722 C168.64861471 31.92248448 162.85477004 31.91212488 157.06089783 31.90216064 C155.06658158 31.89811322 153.07226548 31.8939963 151.07794952 31.88981056 C141.70897337 31.87075871 132.34000511 31.85652746 122.97101331 31.84819859 C112.1550241 31.8384247 101.33923946 31.81210115 90.52332234 31.7716977 C82.16398419 31.74154216 73.80470471 31.72673026 65.44531322 31.72341758 C60.4522677 31.72106651 55.45944074 31.71209856 50.46645355 31.68695641 C45.76816452 31.66368045 41.07023802 31.65944054 36.37190628 31.66971779 C34.64939544 31.67021337 32.92686679 31.66388631 31.20441055 31.65016174 C28.84846158 31.63244282 26.49381367 31.63954792 24.13786316 31.6526947 C22.82083027 31.65030635 21.50379738 31.647918 20.1468544 31.64545727 C14.54680609 32.40197367 10.88374329 34.59578216 7.04527283 38.82794189 Z M-22.51722717 123.14044189 C-29.34346835 132.33975404 -30.81918151 140.93179919 -30.78465271 152.12684631 C-30.78918382 153.21214542 -30.79371494 154.29744452 -30.79838336 155.41563147 C-30.81101257 159.04114905 -30.80940792 162.66651612 -30.80775452 166.29205322 C-30.81374065 168.89604383 -30.82054639 171.50003266 -30.82810974 174.10401917 C-30.84468531 180.4366486 -30.85021771 186.7692408 -30.8513345 193.10189012 C-30.85228654 198.25178209 -30.85640462 203.40166182 -30.86273575 208.55154991 C-30.88033821 223.1683512 -30.8895761 237.78512318 -30.8880748 252.40193514 C-30.88799489 253.18906278 -30.88791498 253.97619042 -30.88783264 254.78717041 C-30.88775088 255.57526451 -30.88766912 256.36335861 -30.88758488 257.17533436 C-30.8867721 269.94530152 -30.90591023 282.7151507 -30.93410937 295.48508374 C-30.96286864 308.61275258 -30.97664802 321.74036393 -30.97492182 334.86806506 C-30.97425901 342.2320334 -30.97970377 349.59587801 -31.00127792 356.95981789 C-31.02144206 363.8865694 -31.02078499 370.81305597 -31.00624466 377.73982048 C-31.00415544 380.27821357 -31.0088641 382.816623 -31.02096558 385.3549881 C-31.03644712 388.82799277 -31.02708953 392.30010059 -31.01170349 395.77308655 C-31.02199062 396.77058058 -31.03227774 397.76807461 -31.0428766 398.79579574 C-30.92712752 410.67011969 -26.61477439 419.75707215 -18.51722717 428.23419189 C-8.96620797 437.37588171 2.792623 441.46274982 15.87417603 441.40786743 C16.68038244 441.41239854 17.48658885 441.41692966 18.31722575 441.42159808 C20.99836282 441.43418188 23.67929518 441.43262562 26.36045837 441.43096924 C28.2912624 441.43695832 30.22206403 441.44376474 32.15286255 441.45132446 C37.38451267 441.46895471 42.61609731 441.47367864 47.84777427 441.47495604 C51.1210655 441.47638008 54.39434021 441.48065452 57.66762733 441.48595047 C69.10073015 441.50444216 80.53378641 441.51262231 91.96690369 441.51104736 C102.60168987 441.50984678 113.23627284 441.53093515 123.87100762 441.56253469 C133.01950138 441.58874331 142.16792897 441.59941271 151.31645995 441.59813654 C156.7723832 441.59762819 162.22812582 441.60324134 167.68401146 441.62449265 C172.81986524 441.6439519 177.95536755 441.64394711 183.09123421 441.62945938 C184.9676401 441.62737958 186.84406844 441.63202231 188.7204361 441.6441803 C205.50668538 441.74583282 220.01876369 439.2134802 232.79527283 427.39044189 C241.95668941 417.67378794 243.79068966 406.06793439 243.75019836 393.19909668 C243.75699503 391.5964844 243.75699503 391.5964844 243.76392901 389.96149611 C243.77653942 386.39902981 243.77495479 382.83671704 243.77330017 379.27423096 C243.7792875 376.71274622 243.78609352 374.15126329 243.7936554 371.58978271 C243.80947033 365.36422964 243.81576287 359.13873234 243.81688015 352.91316107 C243.81783278 347.8491225 243.82195378 342.78509635 243.8282814 337.72106171 C243.84588128 323.34164991 243.85512222 308.96226789 243.85362045 294.58284524 C243.85354054 293.80875643 243.85346063 293.03466763 243.8533783 292.23712158 C243.85325565 291.0745593 243.85325565 291.0745593 243.85313053 289.88851091 C243.85231796 277.33335294 243.87145165 264.77831503 243.89965503 252.22319177 C243.92843187 239.31018383 243.94219269 226.39723436 243.94046748 213.48419356 C243.93980524 206.24313643 243.94522443 199.00220518 243.96682358 191.76117706 C243.98701594 184.94849257 243.98631279 178.13607733 243.97179031 171.32337952 C243.9697043 168.82936464 243.97439063 166.33533304 243.98651123 163.84134674 C244.36925598 140.98891028 244.36925598 140.98891028 233.73667908 121.35528564 C223.35433659 111.15287977 210.10305943 105.98277673 195.64195251 106 C194.46711445 105.99554332 194.46711445 105.99554332 193.26854229 105.9909966 C190.64723326 105.98233361 188.02597003 105.98080336 185.40464783 105.97930908 C183.52354841 105.97467907 181.64244993 105.96965416 179.76135254 105.96426392 C174.65143493 105.95115221 169.54153046 105.94469689 164.43159866 105.94025326 C161.23555068 105.93731944 158.03950627 105.93321396 154.84346008 105.92874908 C144.8337528 105.91507495 134.8240537 105.90540891 124.81433773 105.90154719 C113.27910281 105.89707201 101.74398672 105.87954883 90.20878792 105.8505466 C81.28116681 105.82888392 72.35357902 105.8188404 63.42593193 105.81750607 C58.09965824 105.81646097 52.77349626 105.81061648 47.44725037 105.79268646 C42.4305027 105.77612727 37.41394974 105.77408817 32.39718437 105.78282547 C30.56432 105.78359176 28.73144483 105.77930745 26.89860725 105.76936722 C7.87405756 105.67231122 -9.03882351 108.35090947 -22.51722717 123.14044189 Z " fill="#000000" transform="translate(533.5172271728516,291.85955810546875)"/>
<path d="M0 0 C1.5169043 -0.05607422 1.5169043 -0.05607422 3.06445312 -0.11328125 C4.03962891 -0.12488281 5.01480469 -0.13648438 6.01953125 -0.1484375 C6.91389893 -0.16825684 7.8082666 -0.18807617 8.72973633 -0.20849609 C12.28121876 0.63465907 13.16511628 2.39072303 15.1875 5.375 C15.88149902 6.39368164 16.57549805 7.41236328 17.29052734 8.46191406 C18.03741593 9.60312996 18.78160019 10.74611913 19.5234375 11.890625 C19.92527252 12.5058905 20.32710754 13.12115601 20.74111938 13.75506592 C22.01733217 15.71014558 23.29003793 17.66747761 24.5625 19.625 C25.82549887 21.56304998 27.08922779 23.50062224 28.35308838 25.43811035 C29.16828115 26.68783852 29.98318675 27.93775405 30.79779053 29.18786621 C33.89552251 33.93856738 37.02860428 38.66473354 40.1875 43.375 C40.18226318 42.14346191 40.17702637 40.91192383 40.17163086 39.64306641 C40.15356447 35.08464278 40.14206196 30.52622233 40.13256836 25.96777344 C40.1275319 23.99283313 40.12070249 22.01789657 40.11206055 20.04296875 C40.09996492 17.20832395 40.0942649 14.37372834 40.08984375 11.5390625 C40.08468246 10.65256012 40.07952118 9.76605774 40.07420349 8.85269165 C40.07362829 2.60274341 40.07362829 2.60274341 41.1875 0.375 C48.7775 0.375 56.3675 0.375 64.1875 0.375 C64.34049814 11.04913557 64.48925909 21.72330672 64.6304636 32.39760494 C64.69619489 37.3535721 64.76381734 42.30949871 64.83569336 47.26538086 C64.90492911 52.04393472 64.96928664 56.82253119 65.03019524 61.6011982 C65.05435702 63.42855802 65.08030646 65.25589507 65.10803413 67.08320427 C65.14643309 69.63347686 65.17859761 72.18375486 65.20922852 74.73413086 C65.22217453 75.49729614 65.23512054 76.26046143 65.24845886 77.04675293 C65.26654398 78.82285944 65.23269148 80.5993764 65.1875 82.375 C62.75974421 84.80275579 56.69302396 83.70466992 53.4375 83.75 C52.43460937 83.78738281 51.43171875 83.82476563 50.3984375 83.86328125 C43.02304314 83.95131646 43.02304314 83.95131646 39.3671875 81.4296875 C36.48562145 77.39136376 33.71519521 73.31755244 31.0625 69.125 C30.01828951 67.49475301 28.97401603 65.86454637 27.9296875 64.234375 C27.09002441 62.91663086 27.09002441 62.91663086 26.23339844 61.57226562 C21.9135486 54.82134038 17.54554254 48.10130884 13.1875 41.375 C13.16244385 42.6117749 13.1373877 43.8485498 13.11157227 45.12280273 C13.01767747 49.69436713 12.91741371 54.26577318 12.81518555 58.8371582 C12.77176856 60.81889146 12.73009863 62.80066378 12.69018555 64.7824707 C12.63264617 67.6246317 12.56890555 70.46659483 12.50390625 73.30859375 C12.48719376 74.20025742 12.47048126 75.09192108 12.45326233 76.01060486 C12.30137171 82.26112829 12.30137171 82.26112829 11.1875 83.375 C9.56492456 83.4741657 7.93810169 83.50579777 6.3125 83.5078125 C5.32765625 83.50910156 4.3428125 83.51039063 3.328125 83.51171875 C2.29171875 83.50785156 1.2553125 83.50398437 0.1875 83.5 C-1.36710937 83.50580078 -1.36710937 83.50580078 -2.953125 83.51171875 C-3.93796875 83.51042969 -4.9228125 83.50914062 -5.9375 83.5078125 C-6.84757812 83.50668457 -7.75765625 83.50555664 -8.6953125 83.50439453 C-10.8125 83.375 -10.8125 83.375 -11.8125 82.375 C-11.91285816 79.85497549 -11.94867712 77.362338 -11.94189453 74.84179688 C-11.94364685 74.05321793 -11.94539917 73.26463898 -11.94720459 72.4521637 C-11.95162358 69.8326704 -11.94868496 67.21324404 -11.9453125 64.59375 C-11.94598553 62.7815347 -11.94695554 60.96931948 -11.94821167 59.15710449 C-11.94968871 55.35391381 -11.9475339 51.55074656 -11.94287109 47.74755859 C-11.9371738 42.86121505 -11.94045278 37.97492643 -11.94644356 33.0885849 C-11.95004901 29.34494611 -11.94891066 25.60132045 -11.94631577 21.85768127 C-11.94564645 20.05546563 -11.94647507 18.25324882 -11.94879532 16.45103455 C-11.95132159 13.93672509 -11.94748162 11.42250583 -11.94189453 8.90820312 C-11.94391876 8.15595963 -11.94594299 7.40371613 -11.94802856 6.62867737 C-11.91285846 -1.87099407 -7.37742196 0.1022705 0 0 Z " fill="#000000" transform="translate(329.8125,852.625)"/>
<path d="M0 0 C1.32380173 -0.0049926 1.32380173 -0.0049926 2.67434692 -0.01008606 C4.55242389 -0.01516396 6.43050993 -0.01749412 8.30859375 -0.01733398 C11.14859564 -0.01949569 13.98819323 -0.03757237 16.828125 -0.05664062 C43.15104948 -0.14137185 43.15104948 -0.14137185 53.6953125 9.29296875 C56.76777237 14.72885929 57.3203125 20.68500831 57.3203125 26.85546875 C55.56245883 32.67835902 51.63182295 36.98554544 47.3203125 41.16796875 C47.86300781 41.51988281 48.40570312 41.87179687 48.96484375 42.234375 C56.31532523 47.30686943 56.31532523 47.30686943 57.921875 51.98046875 C59.0489291 58.16821675 59.10962894 64.50402576 57.3203125 70.54296875 C51.22488282 78.54322021 45.25331422 81.73135977 35.3203125 83.16796875 C28.77828731 83.58794514 22.22309338 83.5174072 15.67114258 83.44921875 C12.60160352 83.41764776 9.53257708 83.40819774 6.46289062 83.40234375 C4.51561866 83.39318854 2.56835194 83.38281755 0.62109375 83.37109375 C-0.2985466 83.36684387 -1.21818695 83.36259399 -2.16569519 83.35821533 C-8.5624209 83.28523535 -8.5624209 83.28523535 -9.6796875 82.16796875 C-9.78004566 79.64794424 -9.81586462 77.15530675 -9.80908203 74.63476562 C-9.81083435 73.84618668 -9.81258667 73.05760773 -9.81439209 72.24513245 C-9.81881108 69.62563915 -9.81587246 67.00621279 -9.8125 64.38671875 C-9.81317303 62.57450345 -9.81414304 60.76228823 -9.81539917 58.95007324 C-9.81687621 55.14688256 -9.8147214 51.34371531 -9.81005859 47.54052734 C-9.8043613 42.6541838 -9.80764028 37.76789518 -9.81363106 32.88155365 C-9.81723651 29.13791486 -9.81609816 25.3942892 -9.81350327 21.65065002 C-9.81283395 19.84843438 -9.81366257 18.04621757 -9.81598282 16.2440033 C-9.81850909 13.72969384 -9.81466912 11.21547458 -9.80908203 8.70117188 C-9.81110626 7.94892838 -9.81313049 7.19668488 -9.81521606 6.42164612 C-9.78305469 -1.35089684 -6.90154862 0.0089601 0 0 Z M14.3203125 19.16796875 C14.3203125 23.45796875 14.3203125 27.74796875 14.3203125 32.16796875 C18.74097707 34.37830104 24.78790323 33.63707363 29.3828125 32.23046875 C31.2665625 31.31505208 31.2665625 31.31505208 32.3203125 30.16796875 C32.83337437 26.09964444 32.83337437 26.09964444 32.3203125 22.16796875 C28.50264976 18.99013775 25.35899771 18.83346314 20.5078125 18.98046875 C17.445 19.07328125 17.445 19.07328125 14.3203125 19.16796875 Z M14.3203125 50.16796875 C14.3203125 54.45796875 14.3203125 58.74796875 14.3203125 63.16796875 C17.09172967 63.24886417 19.86079069 63.30840937 22.6328125 63.35546875 C23.81133789 63.39317383 23.81133789 63.39317383 25.01367188 63.43164062 C25.77099609 63.44130859 26.52832031 63.45097656 27.30859375 63.4609375 C28.00509033 63.47664795 28.70158691 63.4923584 29.41918945 63.50854492 C31.94074786 63.05682103 32.79915975 62.20035488 34.3203125 60.16796875 C34.91907464 55.53517411 34.91907464 55.53517411 33.04760742 51.4675293 C30.94410462 49.88492217 29.91427216 49.8162253 27.30859375 49.875 C26.55126953 49.88466797 25.79394531 49.89433594 25.01367188 49.90429688 C24.22798828 49.92943359 23.44230469 49.95457031 22.6328125 49.98046875 C21.83552734 49.99400391 21.03824219 50.00753906 20.21679688 50.02148438 C18.25101283 50.05679786 16.28557668 50.11060428 14.3203125 50.16796875 Z " fill="#000000" transform="translate(637.6796875,852.83203125)"/>
<path d="M0 0 C8.88179645 8.21388536 13.40905786 18.58014146 13.91186523 30.60327148 C14.08018222 43.23539196 10.40354231 53.96345833 1.55859375 63.23046875 C-2.71395605 67.17629416 -7.16042118 70.09238586 -12.55859375 72.2578125 C-13.43902344 72.61488281 -14.31945312 72.97195313 -15.2265625 73.33984375 C-25.76963946 76.24444291 -38.9479517 75.50562674 -48.55859375 70.2578125 C-59.24700597 64.14562418 -65.92914936 56.04375018 -69.55859375 44.2578125 C-72.63522542 31.76668792 -70.56561625 19.37255808 -64.0546875 8.41796875 C-57.96195662 -0.37910743 -48.48877657 -7.40433536 -37.83203125 -9.4921875 C-23.64763319 -11.05198385 -11.37704898 -8.97577955 0 0 Z M-42.37109375 17.9453125 C-46.51602845 24.22192791 -47.56254554 31.05551684 -46.12890625 38.484375 C-44.51466337 44.44312339 -41.76795303 47.94276568 -36.55859375 51.2578125 C-31.27533164 53.01889987 -25.51599853 53.26156743 -20.19921875 51.45703125 C-15.54882085 48.91329857 -13.03678175 45.79946633 -11.1796875 40.85546875 C-9.74306572 34.84695627 -9.53726082 28.26964052 -11.62109375 22.3828125 C-14.57273031 17.62210837 -18.19426695 14.04592143 -23.55859375 12.2578125 C-31.03819537 11.5040542 -36.76438883 12.58779447 -42.37109375 17.9453125 Z " fill="#000000" transform="translate(473.55859375,861.7421875)"/>
<path d="M0 0 C8.21381259 6.9761148 14.01446859 15.93087376 15.23510742 26.8293457 C16.02247538 40.23497643 14.73725598 51.51977687 5.74609375 62.1328125 C-2.61765826 70.66273177 -11.86745198 75.98293926 -23.99267578 76.16381836 C-24.78013184 76.15358643 -25.56758789 76.14335449 -26.37890625 76.1328125 C-27.20890137 76.12451416 -28.03889648 76.11621582 -28.89404297 76.10766602 C-41.09367959 75.7729562 -49.3217239 71.17901418 -57.9765625 62.78125 C-65.73428196 54.51293754 -68.40571387 44.99325957 -69.31640625 33.8828125 C-68.84701486 20.94847206 -64.07293936 10.30805336 -54.81640625 1.3203125 C-39.32725912 -11.61830612 -16.16337403 -11.80371167 0 0 Z M-42.00390625 20.9453125 C-45.47112518 27.21932771 -44.89638485 34.80339445 -44.00390625 41.6953125 C-42.26878333 46.42932896 -39.44376649 50.1793917 -35.00390625 52.6953125 C-29.89352385 54.3987733 -24.04295078 54.66758452 -18.8671875 53.01171875 C-13.17555891 50.03626866 -10.75072141 45.82907009 -8.69140625 39.9453125 C-7.2383944 32.94686094 -7.90701489 26.87640851 -11.69140625 20.7578125 C-14.40636616 17.12502926 -16.53755789 14.98368222 -21.00390625 13.6953125 C-29.35930513 12.59813891 -36.60618537 14.11122331 -42.00390625 20.9453125 Z " fill="#000000" transform="translate(771.00390625,860.3046875)"/>
<path d="M0 0 C10.32576776 8.80037025 14.93863341 18.59801442 16.28515625 31.96875 C16.76988001 43.64427024 12.44533425 55.53591786 4.6953125 64.28515625 C-5.90912534 73.84944588 -16.7117393 76.54405019 -30.55078125 76.10546875 C-41.60981535 75.44575729 -51.30627887 69.9428927 -58.75 61.8828125 C-67.72820329 50.97180156 -69.18861553 38.435633 -67.9375 24.7578125 C-65.77639403 14.38204804 -59.7475232 4.73542193 -50.9375 -1.2421875 C-34.80723468 -10.74610814 -15.62874297 -11.43426416 0 0 Z M-41.9375 21.7578125 C-45.15318043 28.200417 -45.15990899 36.44303916 -43.21484375 43.30859375 C-41.26954861 47.49058452 -38.86778736 50.23839753 -34.9375 52.7578125 C-29.30066637 54.63675704 -23.17912826 54.50502192 -17.5625 52.6328125 C-13.49083505 49.72448039 -10.55071921 46.59747012 -8.9375 41.7578125 C-8.76283036 38.97168851 -8.66052561 36.23288838 -8.625 33.4453125 C-8.59599609 32.69830078 -8.56699219 31.95128906 -8.53710938 31.18164062 C-8.47663177 25.8828717 -9.46612601 22.97667213 -12.9375 18.7578125 C-18.00025178 14.18898773 -21.80441463 13.45619874 -28.4375 13.54296875 C-34.39856345 14.05524764 -38.16311623 17.35436477 -41.9375 21.7578125 Z " fill="#000000" transform="translate(860.9375,860.2421875)"/>
<path d="M0 0 C0.9583374 0.00523682 1.9166748 0.01047363 2.90405273 0.01586914 C3.83548096 0.0183667 4.76690918 0.02086426 5.7265625 0.0234375 C7.51404907 0.03709351 7.51404907 0.03709351 9.33764648 0.05102539 C13.11202148 0.07165039 16.88639648 0.09227539 20.77514648 0.11352539 C21.10514648 10.67352539 21.43514648 21.23352539 21.77514648 32.11352539 C27.84029872 24.37825877 33.63434984 16.57489557 39.10644531 8.40844727 C39.54239014 7.76198242 39.97833496 7.11551758 40.42749023 6.44946289 C40.80897217 5.87760254 41.1904541 5.30574219 41.58349609 4.71655273 C43.99186196 1.47678009 43.99186196 1.47678009 45.77514648 0.11352539 C48.41064453 -0.22705078 48.41064453 -0.22705078 51.53686523 -0.17944336 C52.65512695 -0.16977539 53.77338867 -0.16010742 54.92553711 -0.15014648 C56.67640625 -0.11244141 56.67640625 -0.11244141 58.46264648 -0.07397461 C59.64149414 -0.06043945 60.8203418 -0.0469043 62.03491211 -0.03295898 C64.94878059 0.00243213 67.86173594 0.0518073 70.77514648 0.11352539 C70.77514648 5.00294368 69.0006089 6.8029071 66.02514648 10.36352539 C65.01684998 11.60556714 64.01041102 12.84911864 63.00561523 14.09399414 C62.47758301 14.7454541 61.94955078 15.39691406 61.40551758 16.06811523 C58.63544776 19.54335407 55.98881676 23.10974711 53.33764648 26.67602539 C50.21372367 30.87716296 47.07590834 35.04804802 43.77514648 39.11352539 C45.22524034 43.37804873 47.3590389 46.4077846 50.15014648 49.92602539 C51.0496092 51.07105412 51.94799731 52.21692759 52.84545898 53.36352539 C53.32015625 53.9680957 53.79485352 54.57266602 54.28393555 55.19555664 C56.90910155 58.57199804 59.46520833 62.00002448 62.02514648 65.42602539 C62.50773926 66.07095947 62.99033203 66.71589355 63.48754883 67.38037109 C64.43070765 68.64097944 65.37358433 69.90179893 66.31616211 71.1628418 C68.79896175 74.48238147 71.28717017 77.79786478 73.77514648 81.11352539 C73.44514648 81.77352539 73.11514648 82.43352539 72.77514648 83.11352539 C49.82360233 85.15457515 49.82360233 85.15457515 43.65991211 82.04711914 C40.4401848 79.2669856 38.56007705 75.76461436 36.72583008 71.97436523 C35.12602777 68.84295968 33.0168853 66.082953 30.96264648 63.23852539 C30.27557617 62.23047852 29.58850586 61.22243164 28.88061523 60.18383789 C26.55592089 56.79383834 24.17259654 53.45238254 21.77514648 50.11352539 C21.78300171 51.55973267 21.78300171 51.55973267 21.79101562 53.03515625 C21.80906766 56.60025103 21.82057923 60.16534175 21.83007812 63.73046875 C21.83511788 65.27572305 21.84194968 66.82097255 21.85058594 68.36621094 C21.86266725 70.58277568 21.86837821 72.79927757 21.87280273 75.01586914 C21.87796402 75.71066879 21.88312531 76.40546844 21.88844299 77.12132263 C21.88863925 78.78581869 21.83703777 80.45018038 21.77514648 82.11352539 C20.77514648 83.11352539 20.77514648 83.11352539 18.55029297 83.22705078 C17.11278687 83.21919556 17.11278687 83.21919556 15.64624023 83.21118164 C14.09453125 83.20634766 14.09453125 83.20634766 12.51147461 83.20141602 C11.42286133 83.19303711 10.33424805 83.1846582 9.21264648 83.17602539 C7.57392578 83.16925781 7.57392578 83.16925781 5.90209961 83.16235352 C3.19306153 83.15052366 0.48413049 83.13404082 -2.22485352 83.11352539 C-3.25061571 78.89351209 -3.36672464 74.81077459 -3.35424805 70.4934082 C-3.35600037 69.74325943 -3.35775269 68.99311066 -3.35955811 68.2202301 C-3.36394304 65.75234636 -3.36105168 63.2845348 -3.35766602 60.81665039 C-3.35833974 59.09983303 -3.35931033 57.38301576 -3.36056519 55.66619873 C-3.36203736 52.07522673 -3.35990196 48.48427965 -3.35522461 44.89331055 C-3.34951039 40.28060564 -3.35282003 35.6679587 -3.35879707 31.05525589 C-3.36240099 27.51407428 -3.36126519 23.97290656 -3.35866928 20.43172455 C-3.35800043 18.72998803 -3.35882698 17.02825026 -3.36114883 15.3265152 C-3.36367443 12.95633065 -3.35983691 10.58624183 -3.35424805 8.21606445 C-3.35728439 7.1532299 -3.35728439 7.1532299 -3.36038208 6.06892395 C-3.33447473 0.17014493 -3.33447473 0.17014493 0 0 Z " fill="#000000" transform="translate(888.224853515625,852.886474609375)"/>
<path d="M0 0 C0.9215538 0.00222061 1.8431076 0.00444122 2.79258728 0.00672913 C3.83359085 0.00680466 4.87459442 0.00688019 5.94714355 0.00695801 C7.07941879 0.01211929 8.21169403 0.01728058 9.37828064 0.02259827 C10.53106003 0.02401321 11.68383942 0.02542816 12.87155151 0.02688599 C16.57043503 0.03250446 20.26925903 0.0450601 23.96812439 0.05775452 C26.46877456 0.06276714 28.96942567 0.06733045 31.47007751 0.07142639 C37.61528027 0.0824799 43.76044808 0.099236 49.90562439 0.12025452 C50.10157115 3.26562219 50.28596449 6.41156066 50.46812439 9.55775452 C50.55223572 10.90450256 50.55223572 10.90450256 50.63804626 12.27845764 C50.68638611 13.13246155 50.73472595 13.98646545 50.78453064 14.86634827 C50.83166199 15.65710754 50.87879333 16.44786682 50.92735291 17.2625885 C50.90562439 19.12025452 50.90562439 19.12025452 49.90562439 20.12025452 C47.76003612 20.20801057 45.61158018 20.22720671 43.46421814 20.21791077 C42.15904236 20.21468811 40.85386658 20.21146545 39.50914001 20.20814514 C38.12046749 20.19978853 36.73179562 20.19132357 35.34312439 20.18275452 C33.95054783 20.17774118 32.55796957 20.17317798 31.16539001 20.16908264 C27.74542569 20.15724885 24.32554595 20.14076332 20.90562439 20.12025452 C20.90562439 23.75025452 20.90562439 27.38025452 20.90562439 31.12025452 C22.69871033 31.10865295 24.49179626 31.09705139 26.33921814 31.08509827 C28.67385252 31.07572222 31.00848802 31.06662183 33.34312439 31.05775452 C34.5271283 31.04937561 35.7111322 31.0409967 36.93101501 31.03236389 C38.05572205 31.02914124 39.18042908 31.02591858 40.33921814 31.02259827 C41.3813446 31.01736145 42.42347107 31.01212463 43.49717712 31.00672913 C45.90562439 31.12025452 45.90562439 31.12025452 46.90562439 32.12025452 C47.00549414 34.963605 47.0444032 37.77722615 47.03062439 40.62025452 C47.03642517 41.81714905 47.03642517 41.81714905 47.04234314 43.03822327 C47.03223206 48.99364684 47.03223206 48.99364684 45.90562439 50.12025452 C44.05192828 50.20763097 42.19494898 50.22723605 40.33921814 50.21791077 C39.21451111 50.21468811 38.08980408 50.21146545 36.93101501 50.20814514 C35.74701111 50.19976624 34.5630072 50.19138733 33.34312439 50.18275452 C32.1552533 50.1782428 30.9673822 50.17373108 29.74351501 50.16908264 C26.79753027 50.15725138 23.85157123 50.13931528 20.90562439 50.12025452 C20.90562439 54.41025452 20.90562439 58.70025452 20.90562439 63.12025452 C30.47562439 63.12025452 40.04562439 63.12025452 49.90562439 63.12025452 C50.23562439 69.39025452 50.56562439 75.66025452 50.90562439 82.12025452 C48.42914584 83.35849379 46.78248698 83.24719672 44.01280212 83.24964905 C42.48628273 83.25437729 42.48628273 83.25437729 40.92892456 83.25920105 C39.82682144 83.25717682 38.72471832 83.25515259 37.58921814 83.25306702 C36.46242142 83.25402374 35.33562469 83.25498047 34.17468262 83.25596619 C31.78982996 83.25664755 29.40497545 83.25479633 27.02012634 83.25062561 C23.35496387 83.24527181 19.68992368 83.25057468 16.02476501 83.25697327 C13.71291578 83.25631258 11.40106663 83.2550316 9.08921814 83.25306702 C7.98509079 83.25509125 6.88096344 83.25711548 5.74337769 83.25920105 C4.72885025 83.25604889 3.71432281 83.25289673 2.66905212 83.24964905 C1.77129562 83.24885345 0.87353912 83.24805786 -0.05142212 83.24723816 C-2.09437561 83.12025452 -2.09437561 83.12025452 -3.09437561 82.12025452 C-3.19473377 79.60023001 -3.23055273 77.10759251 -3.22377014 74.58705139 C-3.22552246 73.79847244 -3.22727478 73.00989349 -3.2290802 72.19741821 C-3.23349919 69.57792492 -3.23056057 66.95849856 -3.22718811 64.33900452 C-3.22786114 62.52678921 -3.22883115 60.714574 -3.23008728 58.90235901 C-3.23156432 55.09916832 -3.22940951 51.29600108 -3.2247467 47.49281311 C-3.21904941 42.60646957 -3.22232839 37.72018094 -3.22831917 32.83383942 C-3.23192462 29.09020063 -3.23078627 25.34657496 -3.22819138 21.60293579 C-3.22752206 19.80072015 -3.22835068 17.99850333 -3.23067093 16.19628906 C-3.2331972 13.6819796 -3.22935723 11.16776034 -3.22377014 8.65345764 C-3.22579437 7.90121414 -3.2278186 7.14897064 -3.22990417 6.37393188 C-3.20429129 0.18398347 -3.20429129 0.18398347 0 0 Z " fill="#000000" transform="translate(568.0943756103516,852.8797454833984)"/>
<path d="M0 0 C0.83081785 -0.00297112 1.66163571 -0.00594224 2.51762986 -0.0090034 C5.30572907 -0.01768531 8.09378531 -0.01919822 10.88189697 -0.02069092 C12.87933443 -0.02531946 14.876771 -0.03034417 16.87420654 -0.03573608 C22.30408539 -0.04885879 27.73395188 -0.05530482 33.16384411 -0.05974674 C36.55633651 -0.06267773 39.94882553 -0.06678259 43.34131622 -0.07125092 C53.95596608 -0.08492562 64.57060821 -0.09459236 75.18526626 -0.09845281 C87.43766461 -0.10293337 99.68995139 -0.12048136 111.94231582 -0.1494534 C121.41335839 -0.17107118 130.88436958 -0.18115714 140.35543656 -0.18249393 C146.01188078 -0.1835419 151.66822012 -0.18944814 157.32463837 -0.20731354 C162.64668255 -0.22379576 167.96854302 -0.22594891 173.29060364 -0.21717453 C175.24167116 -0.21640424 177.19274857 -0.22074585 179.1437912 -0.23063278 C181.81222463 -0.24335978 184.48000816 -0.23747141 187.1484375 -0.22705078 C188.30002086 -0.23913539 188.30002086 -0.23913539 189.47486854 -0.25146413 C194.85992001 -0.20245445 198.92504516 0.86231275 203.82818604 3.14044189 C205.98645765 6.37784932 206.56138935 7.38277492 205.82818604 11.14044189 C199.88859883 16.00010416 195.07952017 16.2891656 187.65637207 16.28088379 C186.82555422 16.28385491 185.99473636 16.28682603 185.13874221 16.28988719 C182.350643 16.2985691 179.56258676 16.30008201 176.7744751 16.30157471 C174.77703764 16.30620325 172.77960107 16.31122796 170.78216553 16.31661987 C165.35228668 16.32974258 159.92242019 16.33618861 154.49252796 16.34063053 C151.10003556 16.34356152 147.70754654 16.34766638 144.31505585 16.3521347 C133.70040599 16.36580941 123.08576387 16.37547615 112.47110581 16.3793366 C100.21870746 16.38381716 87.96642068 16.40136515 75.71405625 16.43033719 C66.24301368 16.45195497 56.77200249 16.46204093 47.30093551 16.46337771 C41.64449129 16.46442569 35.98815195 16.47033193 30.3317337 16.48819733 C25.00968952 16.50467954 19.68782905 16.5068327 14.36576843 16.49805832 C12.41470091 16.49728802 10.4636235 16.50162964 8.51258087 16.51151657 C5.84414744 16.52424357 3.17636391 16.5183552 0.50793457 16.50793457 C-0.64364879 16.52001918 -0.64364879 16.52001918 -1.81849647 16.53234792 C-7.88232849 16.47716061 -13.60716024 15.40337165 -18.29681396 11.26544189 C-19.17181396 9.14044189 -19.17181396 9.14044189 -18.67181396 6.57794189 C-16.60838783 3.22487443 -14.20651231 1.84112131 -10.51848984 0.57109451 C-7.02375124 -0.07024601 -3.54053743 -0.00395008 0 0 Z " fill="#010101" transform="translate(546.1718139648438,519.8595581054688)"/>
<path d="M0 0 C0.83813053 -0.00367669 1.67626107 -0.00735338 2.5397895 -0.01114148 C5.35862985 -0.02218703 8.17743335 -0.02602364 10.99629211 -0.02983093 C13.01328651 -0.03609494 15.03027976 -0.04274169 17.04727173 -0.04974365 C22.53505551 -0.06715947 28.02283057 -0.0777071 33.51063514 -0.08594918 C36.93880156 -0.09109832 40.36696527 -0.0971741 43.79512978 -0.10346031 C54.51977176 -0.12251439 65.24440685 -0.13674483 75.96906251 -0.14507228 C88.35111413 -0.15484519 100.732987 -0.18116533 113.11497563 -0.22157317 C122.683661 -0.25172891 132.25229513 -0.26654066 141.8210271 -0.26985329 C147.53676803 -0.27220446 153.25231806 -0.28117367 158.96800804 -0.30631447 C164.34670987 -0.32959044 169.72509502 -0.33383019 175.10383415 -0.32355309 C177.07586978 -0.3230575 179.04792097 -0.32938468 181.01990891 -0.34310913 C183.71702016 -0.36082693 186.41299483 -0.35372254 189.11010742 -0.34057617 C190.27438681 -0.35703004 190.27438681 -0.35703004 191.46218699 -0.37381631 C196.79078648 -0.31132242 201.61243331 0.76018855 205.87251282 4.14717102 C206.87251282 7.89717102 206.87251282 7.89717102 206.87251282 11.14717102 C200.46769983 15.6596529 196.42672341 16.29623263 188.70069885 16.28761292 C187.869881 16.29058404 187.03906314 16.29355516 186.18306899 16.29661632 C183.39496978 16.30529822 180.60691354 16.30681114 177.81880188 16.30830383 C175.82136442 16.31293237 173.82392785 16.31795708 171.82649231 16.323349 C166.39661346 16.3364717 160.96674697 16.34291773 155.53685474 16.34735966 C152.14436235 16.35029064 148.75187333 16.35439551 145.35938263 16.35886383 C134.74473278 16.37253854 124.13009065 16.38220528 113.5154326 16.38606572 C101.26303424 16.39054628 89.01074746 16.40809427 76.75838304 16.43706632 C67.28734046 16.4586841 57.81632927 16.46877006 48.34526229 16.47010684 C42.68881807 16.47115481 37.03247873 16.47706105 31.37606049 16.49492645 C26.0540163 16.51140867 20.73215583 16.51356183 15.41009521 16.50478745 C13.45902769 16.50401715 11.50795028 16.50835877 9.55690765 16.5182457 C6.88847422 16.5309727 4.2206907 16.52508433 1.55226135 16.5146637 C0.40067799 16.5267483 0.40067799 16.5267483 -0.77416968 16.53907704 C-6.75471919 16.4846477 -12.7306533 15.54400491 -17.12748718 11.14717102 C-17.62748718 8.27217102 -17.62748718 8.27217102 -17.12748718 5.14717102 C-11.55720292 0.56715952 -6.95836291 -0.00162936 0 0 Z " fill="#000000" transform="translate(545.1274871826172,459.8528289794922)"/>
<path d="M0 0 C0.83011229 -0.00367669 1.66022458 -0.00735338 2.51549178 -0.01114148 C5.3012531 -0.02216771 8.0869771 -0.02602036 10.87275696 -0.02983093 C12.86857217 -0.03609638 14.86438621 -0.04274325 16.86019897 -0.04974365 C23.41816904 -0.07077653 29.97613931 -0.08114521 36.53413391 -0.09111023 C38.79245834 -0.09515805 41.05078265 -0.09927498 43.30910683 -0.10346031 C53.91895119 -0.12251015 64.5287886 -0.13674171 75.13864678 -0.14507228 C87.38257803 -0.15484482 99.6263285 -0.18116576 111.87019604 -0.22157317 C121.33615798 -0.25174003 130.80206812 -0.2665417 140.26807719 -0.26985329 C145.92067887 -0.27220309 151.57308736 -0.28115461 157.22563744 -0.30631447 C162.54526077 -0.32961005 167.86456394 -0.33382231 173.18422508 -0.32355309 C175.13326584 -0.32305798 177.08232245 -0.32937084 179.03131485 -0.34310913 C197.66861409 -0.46709833 197.66861409 -0.46709833 204.83491516 4.14717102 C206.14741516 7.14717102 206.14741516 7.14717102 205.83491516 10.14717102 C203.18597633 13.96164294 200.2138102 14.96994036 195.83491516 16.14717102 C192.99661914 16.33228084 190.2587037 16.42177287 187.42259216 16.40786743 C186.17380211 16.41360575 186.17380211 16.41360575 184.89978397 16.41946 C182.11784238 16.42975592 179.33610851 16.42580433 176.55415344 16.42182922 C174.55641998 16.4261776 172.55868818 16.43136116 170.56095886 16.43731689 C165.13944351 16.450705 159.71799788 16.45128574 154.29646921 16.4487536 C149.76864844 16.44768371 145.24084177 16.45256775 140.71302402 16.45735902 C130.0298481 16.46845367 119.34670734 16.46889191 108.66352844 16.46284485 C97.64699852 16.45680492 86.63059631 16.46911671 75.61408818 16.49041492 C66.15149183 16.50803546 56.68893611 16.51403153 47.22632396 16.51077718 C41.57662476 16.50896482 35.92701664 16.51159578 30.27733231 16.52549171 C24.96345781 16.53807264 19.64978226 16.53612333 14.3359108 16.52308083 C12.38807101 16.52071604 10.44021721 16.5234462 8.49239349 16.53170395 C5.82843417 16.54218145 3.16514116 16.53406273 0.50120544 16.52139282 C-0.64833156 16.53245425 -0.64833156 16.53245425 -1.82109153 16.54373914 C-7.79672983 16.48416352 -13.77251295 15.53974291 -18.16508484 11.14717102 C-18.66508484 8.27217102 -18.66508484 8.27217102 -18.16508484 5.14717102 C-12.32052912 0.23243099 -7.36406496 -0.00174964 0 0 Z " fill="#010101" transform="translate(546.1650848388672,579.8528289794922)"/>
<path d="M0 0 C1.75539345 0.00333092 1.75539345 0.00333092 3.54624939 0.00672913 C4.51207191 0.00651009 4.51207191 0.00651009 5.49740601 0.00628662 C7.63473327 0.00698567 9.77197438 0.01477761 11.9092865 0.02259827 C13.3875931 0.02446248 14.86590032 0.02588637 16.34420776 0.02688599 C20.24211827 0.03071093 24.13999174 0.040541 28.03788757 0.05158997 C32.01259358 0.0618046 35.98730554 0.06638372 39.96202087 0.07142639 C47.76607425 0.0821633 55.57009707 0.09923942 63.37413025 0.12025452 C64.28196032 4.30758144 64.47674946 8.13999942 64.43663025 12.43275452 C64.42760681 13.68701233 64.41858337 14.94127014 64.4092865 16.23353577 C64.39768494 17.18615295 64.38608337 18.13877014 64.37413025 19.12025452 C59.74953781 20.297255 55.29546563 20.23433864 50.56163025 20.18275452 C49.37923767 20.17598694 49.37923767 20.17598694 48.17295837 20.16908264 C46.23998264 20.15736764 44.30704632 20.1394345 42.37413025 20.12025452 C42.37635086 20.89477463 42.37857147 21.66929474 42.38085938 22.46728516 C42.40086159 29.75146473 42.41610402 37.03563107 42.42594242 44.31983089 C42.43117039 48.06508489 42.43826647 51.81031627 42.4495697 55.55555725 C42.46040166 59.16707139 42.46640774 62.77856372 42.46900749 66.39009285 C42.47086119 67.77085781 42.47448074 69.15162152 42.47986031 70.53237724 C42.48707472 72.46001404 42.48753834 74.38767258 42.48765564 76.31532288 C42.48987625 77.4145256 42.49209686 78.51372833 42.49438477 79.64624023 C42.37413025 82.12025452 42.37413025 82.12025452 41.37413025 83.12025452 C39.75155481 83.21942022 38.12473194 83.25105228 36.49913025 83.25306702 C35.5142865 83.25435608 34.52944275 83.25564514 33.51475525 83.25697327 C32.478349 83.25310608 31.44194275 83.24923889 30.37413025 83.24525452 C28.81952087 83.2510553 28.81952087 83.2510553 27.23350525 83.25697327 C26.2486615 83.2556842 25.26381775 83.25439514 24.24913025 83.25306702 C23.33905212 83.25193909 22.428974 83.25081116 21.49131775 83.24964905 C19.37413025 83.12025452 19.37413025 83.12025452 18.37413025 82.12025452 C18.25055947 80.18801457 18.19618567 78.25131653 18.16880798 76.31532288 C18.14886276 75.07411179 18.12891754 73.8329007 18.10836792 72.55407715 C18.09138232 71.18941882 18.07450356 69.82475915 18.057724 68.46009827 C18.03716089 67.07146577 18.01616459 65.68283962 17.99475098 64.29421997 C17.93946378 60.63311393 17.89008399 56.97195079 17.84190369 53.31074524 C17.79173704 49.57727455 17.73602579 45.84388713 17.68077087 42.11048889 C17.57310804 34.78047921 17.47219345 27.45040006 17.37413025 20.12025452 C10.77413025 19.79025452 4.17413025 19.46025452 -2.62586975 19.12025452 C-4.21283819 15.94631763 -3.76901445 12.53851247 -3.75086975 9.05775452 C-3.75473694 8.31203186 -3.75860413 7.5663092 -3.7625885 6.79798889 C-3.75055176 0.17176053 -3.75055176 0.17176053 0 0 Z " fill="#000000" transform="translate(494.62586975097656,852.8797454833984)"/>
<path d="M0 0 C3.41132313 -0.3849769 6.60078591 -0.54787798 10 0 C12.26602409 2.36341768 13.27402346 3.68692764 14.625 6.5 C14.96144531 7.12003906 15.29789063 7.74007812 15.64453125 8.37890625 C16.46421589 9.90117773 17.23704618 11.4485185 18 13 C18.33 8.71 18.66 4.42 19 0 C21.97 0 24.94 0 28 0 C29.09911549 3.29734646 29.1139456 5.72958745 29.09765625 9.19921875 C29.09443359 10.40771484 29.09121094 11.61621094 29.08789062 12.86132812 C29.07951172 14.12396484 29.07113281 15.38660156 29.0625 16.6875 C29.05798828 17.96173828 29.05347656 19.23597656 29.04882812 20.54882812 C29.03702873 23.69926564 29.02056597 26.84960949 29 30 C25.66041982 31.66979009 23.70178235 31.60684957 20 31 C15.79024483 26.96242295 12.98225442 21.97042404 10 17 C10 21.29 10 25.58 10 30 C6.78548731 31.60725635 3.56387464 31.05748185 0 31 C-1.10961564 27.48808517 -1.03443358 24.36665772 -0.87890625 20.703125 C-0.83056641 19.49785156 -0.78222656 18.29257812 -0.73242188 17.05078125 C-0.67634766 15.79652344 -0.62027344 14.54226563 -0.5625 13.25 C-0.51029297 11.98027344 -0.45808594 10.71054687 -0.40429688 9.40234375 C-0.27468016 6.26797593 -0.13971529 3.13393126 0 0 Z " fill="#030303" transform="translate(655,957)"/>
<path d="M0 0 C4.24087436 3.31350871 5.85277381 6.64923525 6.5234375 11.89453125 C6.72479801 21.09789089 6.72479801 21.09789089 3.83984375 24.6171875 C-0.56033132 28.50571431 -4.01493677 29.89551259 -9.84765625 29.9921875 C-14.88019817 29.05391697 -18.16855787 27.56616878 -21.84765625 23.9921875 C-24.9275845 19.10752936 -24.45099129 13.55627727 -23.84765625 7.9921875 C-21.69778397 3.45356825 -19.36862613 1.13964819 -14.84765625 -1.0078125 C-9.9452311 -2.52329248 -4.58107045 -2.4987657 0 0 Z M-12.09765625 7.7421875 C-13.99062194 8.88821245 -13.99062194 8.88821245 -14.84765625 10.9921875 C-15.23697823 14.5739497 -15.28362343 16.35500471 -13.22265625 19.3671875 C-10.24386665 21.4053067 -8.38443289 21.31371265 -4.84765625 20.9921875 C-4.51765625 20.3321875 -4.18765625 19.6721875 -3.84765625 18.9921875 C-6.81765625 18.4971875 -6.81765625 18.4971875 -9.84765625 17.9921875 C-9.84765625 16.0121875 -9.84765625 14.0321875 -9.84765625 11.9921875 C-5.22765625 11.6621875 -0.60765625 11.3321875 4.15234375 10.9921875 C4.15234375 10.6621875 4.15234375 10.3321875 4.15234375 9.9921875 C3.56066406 9.94320312 2.96898437 9.89421875 2.359375 9.84375 C-4.32978528 9.21084413 -4.32978528 9.21084413 -7.66015625 7.8046875 C-9.84924432 6.73156742 -9.84924432 6.73156742 -12.09765625 7.7421875 Z " fill="#020202" transform="translate(558.84765625,958.0078125)"/>
<path d="M0 0 C3.5807344 3.23139446 5.24103652 5.87572741 5.87890625 10.7109375 C6.14541465 16.43656953 5.47260877 19.87399816 1.5625 24.3125 C-2.00485007 28.08369865 -5.12426104 29.06691396 -10.1640625 29.41015625 C-15.23764868 29.1922187 -18.57268483 27.06451319 -22.3125 23.8125 C-25.77889905 19.73438347 -25.78951848 16.02701615 -25.70703125 10.8828125 C-25.29215032 6.92641173 -24.16051857 4.22012999 -21.4375 1.3125 C-14.78451659 -3.99149138 -7.40534931 -3.6353533 0 0 Z M-14.3125 7.4375 C-15.76209612 9.85349354 -16.3027247 11.48221865 -16.4375 14.3125 C-15.44469496 17.13387181 -15.44469496 17.13387181 -13.4375 19.3125 C-11.04398505 20.47460219 -11.04398505 20.47460219 -8.4375 20.3125 C-5.60103159 18.8942658 -4.6608502 17.91873626 -3.5625 14.9375 C-3.41734176 11.88917699 -4.11528712 10.034703 -5.4375 7.3125 C-10.02305003 6.13210078 -10.02305003 6.13210078 -14.3125 7.4375 Z " fill="#010101" transform="translate(499.4375,958.6875)"/>
<path d="M0 0 C4.5478125 -0.1546875 4.5478125 -0.1546875 9.1875 -0.3125 C10.13391357 -0.35802002 11.08032715 -0.40354004 12.05541992 -0.45043945 C16.47694443 -0.52318505 18.41326171 -0.44249533 22.05078125 2.30078125 C24.49031289 5.67897035 25 7.84372357 25 12 C23.75 14.875 23.75 14.875 22 17 C21.01 17.33 20.02 17.66 19 18 C19.433125 18.69867187 19.86625 19.39734375 20.3125 20.1171875 C20.869375 21.02726563 21.42625 21.93734375 22 22.875 C22.556875 23.77992188 23.11375 24.68484375 23.6875 25.6171875 C25 28 25 28 25 30 C22.0074093 31.49629535 19.47399279 31.15819967 16.19921875 30.7890625 C13.33293429 29.76066204 12.75806909 28.63584694 11.4375 25.9375 C10.92370342 24.63816555 10.43275439 23.32852572 10 22 C9.87625 23.299375 9.7525 24.59875 9.625 25.9375 C9.4140625 28.15234375 9.4140625 28.15234375 9 30 C7 31 7 31 0 31 C0 20.77 0 10.54 0 0 Z M9 8 C9 9.65 9 11.3 9 13 C10.98 12.67 12.96 12.34 15 12 C14.67 10.68 14.34 9.36 14 8 C12.35 8 10.7 8 9 8 Z " fill="#020202" transform="translate(833,957)"/>
<path d="M0 0 C2.97 0 5.94 0 9 0 C9 3.63 9 7.26 9 11 C11.64 10.67 14.28 10.34 17 10 C17.33 6.7 17.66 3.4 18 0 C20.97 0 23.94 0 27 0 C27.33 9.9 27.66 19.8 28 30 C24.78548731 31.60725635 21.56387464 31.05748185 18 31 C18 27.04 18 23.08 18 19 C15.03 19 12.06 19 9 19 C9.01160156 19.78246094 9.02320313 20.56492187 9.03515625 21.37109375 C9.04417969 22.38300781 9.05320312 23.39492188 9.0625 24.4375 C9.07410156 25.44683594 9.08570313 26.45617187 9.09765625 27.49609375 C9 30 9 30 8 31 C4.5 31.125 4.5 31.125 1 31 C0 30 0 30 -0.11352539 27.13256836 C-0.10828857 25.88096924 -0.10305176 24.62937012 -0.09765625 23.33984375 C-0.0962413 22.67537735 -0.09482635 22.01091095 -0.09336853 21.3263092 C-0.08775518 19.19666101 -0.07520054 17.06711661 -0.0625 14.9375 C-0.05748671 13.49674631 -0.05292351 12.05599097 -0.04882812 10.61523438 C-0.03778145 7.07678898 -0.02050792 3.53840461 0 0 Z " fill="#030303" transform="translate(723,957)"/>
<path d="M0 0 C1.51400391 0.01740234 1.51400391 0.01740234 3.05859375 0.03515625 C4.07050781 0.04417969 5.08242188 0.05320312 6.125 0.0625 C7.29869141 0.07990234 7.29869141 0.07990234 8.49609375 0.09765625 C9.92651415 3.88560731 11.35049165 7.67591073 12.76855469 11.46850586 C13.2518164 12.75823083 13.73683044 14.04730063 14.22363281 15.33569336 C14.9232329 17.18820583 15.61600608 19.04329194 16.30859375 20.8984375 C16.72753906 22.01387939 17.14648438 23.12932129 17.578125 24.27856445 C18.49609375 27.09765625 18.49609375 27.09765625 18.49609375 30.09765625 C15.7570403 31.46718298 13.52522043 31.22386986 10.49609375 31.09765625 C9.83609375 30.76765625 9.17609375 30.43765625 8.49609375 30.09765625 C7.87109375 28.03515625 7.87109375 28.03515625 7.49609375 26.09765625 C4.4472985 25.81003406 1.53184398 25.63355774 -1.50390625 26.09765625 C-2.53403902 27.74586869 -3.53505253 29.41269327 -4.50390625 31.09765625 C-7.29085111 31.57333961 -9.65429304 31.3312311 -12.50390625 31.09765625 C-13.50390625 29.09765625 -13.50390625 29.09765625 -12.71533203 26.31616211 C-12.29751465 25.15995361 -11.87969727 24.00374512 -11.44921875 22.8125 C-11.11771317 21.88806847 -11.11771317 21.88806847 -10.7795105 20.94496155 C-10.31050323 19.64162818 -9.83783603 18.33960697 -9.36181641 17.03881836 C-8.63154916 15.04238155 -7.91249476 13.04218548 -7.1953125 11.04101562 C-3.25438973 0.12692628 -3.25438973 0.12692628 0 0 Z M2.49609375 12.09765625 C1.83609375 14.07765625 1.17609375 16.05765625 0.49609375 18.09765625 C1.81609375 18.09765625 3.13609375 18.09765625 4.49609375 18.09765625 C4.16609375 16.11765625 3.83609375 14.13765625 3.49609375 12.09765625 C3.16609375 12.09765625 2.83609375 12.09765625 2.49609375 12.09765625 Z " fill="#010101" transform="translate(606.50390625,956.90234375)"/>
<path d="M0 0 C3.1875 2.25 3.1875 2.25 5 5 C4.8125 7.8125 4.8125 7.8125 4 10 C2.741875 10.04125 1.48375 10.0825 0.1875 10.125 C-0.52019531 10.14820313 -1.22789062 10.17140625 -1.95703125 10.1953125 C-4 10 -4 10 -7 8 C-7.33 8.66 -7.66 9.32 -8 10 C-7.39671875 10.17015625 -6.7934375 10.3403125 -6.171875 10.515625 C2.62784701 13.1839278 2.62784701 13.1839278 5 17 C5.69059386 21.83415704 5.75252273 23.82104773 3.125 27.9375 C-1.18447669 30.78175461 -4.87420266 31.3992054 -10 31 C-13.08194202 30.08557764 -14.40636589 29.10732772 -17 27 C-18.4375 23.75 -18.4375 23.75 -19 21 C-17.42972683 19.42972683 -15.85730053 19.83025614 -13.6875 19.8125 C-12.90761719 19.79832031 -12.12773437 19.78414062 -11.32421875 19.76953125 C-8.7967332 20.02015587 -7.18281969 20.73626228 -5 22 C-7.79348491 19.20651509 -11.11106967 18.02553547 -14.6875 16.4140625 C-17.28289563 14.82701314 -18.03540632 13.84968534 -19 11 C-18.91329199 6.92472342 -18.27925597 5.33069786 -15.625 2.1875 C-10.74504876 -1.87912604 -5.93511447 -1.37762593 0 0 Z " fill="#020202" transform="translate(390,957)"/>
<path d="M0 0 C1.27423828 -0.00193359 1.27423828 -0.00193359 2.57421875 -0.00390625 C3.91419922 0.00189453 3.91419922 0.00189453 5.28125 0.0078125 C6.17457031 0.00394531 7.06789063 0.00007812 7.98828125 -0.00390625 C8.83777344 -0.00261719 9.68726563 -0.00132812 10.5625 0 C11.34689453 0.00112793 12.13128906 0.00225586 12.93945312 0.00341797 C14.78125 0.1328125 14.78125 0.1328125 15.78125 1.1328125 C15.90625 4.1328125 15.90625 4.1328125 15.78125 7.1328125 C14.78125 8.1328125 14.78125 8.1328125 12.49609375 8.23046875 C11.12130859 8.21306641 11.12130859 8.21306641 9.71875 8.1953125 C8.79964844 8.18628906 7.88054688 8.17726563 6.93359375 8.16796875 C6.22332031 8.15636719 5.51304687 8.14476562 4.78125 8.1328125 C4.78125 9.1228125 4.78125 10.1128125 4.78125 11.1328125 C7.75125 11.1328125 10.72125 11.1328125 13.78125 11.1328125 C13.78125 13.7728125 13.78125 16.4128125 13.78125 19.1328125 C10.81125 19.1328125 7.84125 19.1328125 4.78125 19.1328125 C4.78125 20.1228125 4.78125 21.1128125 4.78125 22.1328125 C5.49152344 22.12121094 6.20179688 22.10960937 6.93359375 22.09765625 C7.85269531 22.08863281 8.77179687 22.07960938 9.71875 22.0703125 C10.63527344 22.05871094 11.55179688 22.04710937 12.49609375 22.03515625 C14.78125 22.1328125 14.78125 22.1328125 15.78125 23.1328125 C15.90625 26.6328125 15.90625 26.6328125 15.78125 30.1328125 C14.22518249 31.68888001 12.72167629 31.26252019 10.5625 31.265625 C9.28826172 31.26755859 9.28826172 31.26755859 7.98828125 31.26953125 C6.64830078 31.26373047 6.64830078 31.26373047 5.28125 31.2578125 C4.38792969 31.26167969 3.49460937 31.26554688 2.57421875 31.26953125 C1.72472656 31.26824219 0.87523437 31.26695312 0 31.265625 C-0.78439453 31.26449707 -1.56878906 31.26336914 -2.37695312 31.26220703 C-4.21875 31.1328125 -4.21875 31.1328125 -5.21875 30.1328125 C-5.31878289 27.99928076 -5.34956048 25.86243708 -5.3515625 23.7265625 C-5.35285156 22.42589844 -5.35414063 21.12523437 -5.35546875 19.78515625 C-5.35337402 19.10437012 -5.3512793 18.42358398 -5.34912109 17.72216797 C-5.3437724 15.64152735 -5.3490668 13.56110261 -5.35546875 11.48046875 C-5.35417969 10.17980469 -5.35289062 8.87914062 -5.3515625 7.5390625 C-5.35043457 6.33572266 -5.34930664 5.13238281 -5.34814453 3.89257812 C-5.14493674 -0.44149891 -3.92765544 0.00564782 0 0 Z " fill="#040404" transform="translate(893.21875,956.8671875)"/>
<path d="M0 0 C6.6 0 13.2 0 20 0 C20 2.31 20 4.62 20 7 C19 8 19 8 16.71484375 8.09765625 C15.34005859 8.08025391 15.34005859 8.08025391 13.9375 8.0625 C13.01839844 8.05347656 12.09929688 8.04445313 11.15234375 8.03515625 C10.44207031 8.02355469 9.73179687 8.01195312 9 8 C9 8.99 9 9.98 9 11 C12.3 11 15.6 11 19 11 C19.04241723 13.33294775 19.04092937 15.66702567 19 18 C18 19 18 19 15.93359375 19.09765625 C15.10988281 19.08605469 14.28617188 19.07445312 13.4375 19.0625 C12.61121094 19.05347656 11.78492188 19.04445313 10.93359375 19.03515625 C9.97646484 19.01775391 9.97646484 19.01775391 9 19 C9 19.99 9 20.98 9 22 C9.71027344 21.98839844 10.42054688 21.97679687 11.15234375 21.96484375 C12.07144531 21.95582031 12.99054687 21.94679688 13.9375 21.9375 C14.85402344 21.92589844 15.77054688 21.91429687 16.71484375 21.90234375 C19 22 19 22 20 23 C20.125 26.5 20.125 26.5 20 30 C18.4779041 31.5220959 17.11789918 31.12959521 15 31.1328125 C14.195625 31.13410156 13.39125 31.13539063 12.5625 31.13671875 C11.716875 31.13285156 10.87125 31.12898437 10 31.125 C9.154375 31.12886719 8.30875 31.13273438 7.4375 31.13671875 C6.633125 31.13542969 5.82875 31.13414062 5 31.1328125 C4.2575 31.13168457 3.515 31.13055664 2.75 31.12939453 C1 31 1 31 0 30 C-0.08783542 27.78144736 -0.10694609 25.56011504 -0.09765625 23.33984375 C-0.0962413 22.67537735 -0.09482635 22.01091095 -0.09336853 21.3263092 C-0.08775518 19.19666101 -0.07520054 17.06711661 -0.0625 14.9375 C-0.05748671 13.49674631 -0.05292351 12.05599097 -0.04882812 10.61523438 C-0.03863076 7.07675042 -0.0190583 3.53849187 0 0 Z " fill="#040404" transform="translate(782,957)"/>
<path d="M0 0 C1.8125 0.0859375 1.8125 0.0859375 4 0.375 C5.0828125 0.51035156 5.0828125 0.51035156 6.1875 0.6484375 C8 1 8 1 9 2 C9.08700342 3.63472882 9.10701063 5.27314055 9.09765625 6.91015625 C9.09443359 7.89951172 9.09121094 8.88886719 9.08789062 9.90820312 C9.07951172 10.94912109 9.07113281 11.99003906 9.0625 13.0625 C9.05798828 14.10728516 9.05347656 15.15207031 9.04882812 16.22851562 C9.03699913 18.8190666 9.02051689 21.40950559 9 24 C11.97 24 14.94 24 18 24 C18.04241723 26.33294775 18.04092937 28.66702567 18 31 C16.1144747 32.8855253 13.42231169 32.13246689 10.91796875 32.13671875 C10.12003906 32.13285156 9.32210938 32.12898437 8.5 32.125 C7.70207031 32.12886719 6.90414063 32.13273438 6.08203125 32.13671875 C0.12660767 32.12660767 0.12660767 32.12660767 -1 31 C-1.10012401 28.79349344 -1.1308118 26.58377614 -1.1328125 24.375 C-1.13376923 23.71290527 -1.13472595 23.05081055 -1.13571167 22.36865234 C-1.13639326 20.96647039 -1.13454042 19.5642853 -1.13037109 18.16210938 C-1.12502246 16.00904287 -1.1303167 13.85618498 -1.13671875 11.703125 C-1.13605796 10.34374954 -1.13477679 8.9843742 -1.1328125 7.625 C-1.13168457 6.37976563 -1.13055664 5.13453125 -1.12939453 3.8515625 C-1 1 -1 1 0 0 Z " fill="#030303" transform="translate(427,956)"/>
<path d="M0 0 C1.32 0 2.64 0 4 0 C4 0.66 4 1.32 4 2 C3.01 2 2.02 2 1 2 C1 28.07 1 54.14 1 81 C0.01 81.495 0.01 81.495 -1 82 C-1.02312343 71.45618688 -1.04091509 60.91237975 -1.05181217 50.36854649 C-1.057041 45.47314626 -1.06413864 40.57776332 -1.07543945 35.68237305 C-1.08626834 30.96212022 -1.09227684 26.24188408 -1.09487724 21.5216198 C-1.09673149 19.71661046 -1.10035209 17.91160208 -1.10573006 16.10659981 C-1.11294052 13.58740356 -1.11399094 11.0682771 -1.11352539 8.54907227 C-1.11712067 7.79525772 -1.12071594 7.04144318 -1.12442017 6.26478577 C-1.11405216 1.11405216 -1.11405216 1.11405216 0 0 Z " fill="#070707" transform="translate(566,853)"/>
<path d="M0 0 C0.9583374 0.00523682 1.9166748 0.01047363 2.90405273 0.01586914 C4.45576172 0.02070312 4.45576172 0.02070312 6.03881836 0.02563477 C7.12743164 0.03401367 8.21604492 0.04239258 9.33764648 0.05102539 C10.97636719 0.05779297 10.97636719 0.05779297 12.64819336 0.06469727 C15.3572008 0.07652699 18.06618028 0.09446308 20.77514648 0.11352539 C20.77514648 5.06352539 20.77514648 10.01352539 20.77514648 15.11352539 C20.44514648 15.11352539 20.11514648 15.11352539 19.77514648 15.11352539 C19.77514648 10.82352539 19.77514648 6.53352539 19.77514648 2.11352539 C12.84514648 2.11352539 5.91514648 2.11352539 -1.22485352 2.11352539 C-1.55485352 3.43352539 -1.88485352 4.75352539 -2.22485352 6.11352539 C-2.60704119 4.45737882 -2.93880453 2.78895515 -3.22485352 1.11352539 C-2.22485352 0.11352539 -2.22485352 0.11352539 0 0 Z " fill="#0E0E0E" transform="translate(888.224853515625,852.886474609375)"/>
<path d="M0 0 C7.92 0 15.84 0 24 0 C24 1.32 24 2.64 24 4 C23.67 3.34 23.34 2.68 23 2 C15.41 2 7.82 2 0 2 C0 1.34 0 0.68 0 0 Z " fill="#0D0D0D" transform="translate(935,853)"/>
</svg>
